<svg xmlns="http://www.w3.org/2000/svg" viewBox="0 0 1425 435" width="1425" height="435">
	<style>
		tspan { white-space:pre }
		.shp0 { fill: currentcolor } 
	</style>
	<path id="A " fill-rule="evenodd" class="shp0" d="M254 79.45L254 359.52C254 372.32 246.53 384.9 231.59 397.26C216.65 409.18 198.39 418.89 176.8 426.39L154.39 435L161.86 420.43C165.18 413.37 167.26 407.41 168.09 402.56C173.07 385.78 175.56 371.44 175.56 359.52L175.56 203.93C175.56 196.42 170.99 190.24 161.86 185.39C152.73 180.53 141.11 178.11 127 178.11C113.72 178.11 102.31 180.75 92.76 186.05C83.21 190.91 78.44 196.86 78.44 203.93L78.44 359.52C78.44 376.74 81.35 393.51 87.16 409.84C87.99 412.49 89.65 416.02 92.14 420.43L99.61 435L77.2 426.39C63.92 419.77 51.05 413.15 38.6 406.53C12.87 390.2 0 374.53 0 359.52L0 79.45C0 64.44 9.96 49 29.88 33.11C36.52 27.81 47.31 21.19 62.25 13.24L89.65 0L78.44 18.54C73.46 24.72 70.97 32.88 70.97 43.04C70.97 47.89 71.59 51.86 72.84 54.95C74.08 57.6 76.78 60.69 80.93 64.22C90.89 70.84 106.25 74.16 127 74.16C148.58 74.16 163.32 71.29 171.2 65.55C179.09 59.37 183.03 51.86 183.03 43.04C183.03 36.42 182.41 31.34 181.16 27.81C179.92 23.84 178.46 20.75 176.8 18.54L165.6 0L191.75 13.24C203.37 19.42 213.74 26.04 222.87 33.11C243.62 49.44 254 64.89 254 79.45ZM127 84.75C113.72 84.75 102.31 87.4 92.76 92.69C83.21 97.55 78.44 103.51 78.44 110.57L78.44 141.69C78.44 149.19 83.01 155.37 92.14 160.23C101.27 165.08 112.89 167.51 127 167.51C141.11 167.51 152.73 165.08 161.86 160.23C170.99 155.37 175.56 149.19 175.56 141.69L175.56 110.57C175.56 103.07 170.99 96.89 161.86 92.03C152.73 87.18 141.11 84.75 127 84.75Z" />
	<path id="hirava " fill-rule="evenodd" class="shp0" d="M447.49 289.25L447.49 387.16L421.17 387.16L420.85 291.82C420.85 264.21 408.97 249.12 383.61 249.12C366.59 249.12 348.62 263.89 335.78 280.58L335.78 387.16L309.45 387.16L309.45 156.02L335.78 156.02L335.78 252.01C345.73 239.49 366.27 223.44 388.1 223.44C420.85 223.44 447.49 244.95 447.49 289.25ZM501.1 171.43C501.1 159.87 510.41 149.6 522.93 149.6C535.13 149.6 544.76 159.87 544.76 171.43C544.76 182.67 535.13 193.26 522.93 193.26C510.41 193.26 501.1 182.67 501.1 171.43ZM539.3 387.16L512.98 387.16L512.98 251.37L487.62 251.37L487.62 226.65L539.3 226.65L539.3 387.16ZM691.47 227.93L691.47 259.39C684.73 254.26 676.38 251.05 668.03 251.05C646.21 251.05 634.33 268.7 622.45 290.21L622.45 387.16L596.13 387.16L596.13 226.65L622.45 226.65L622.45 258.75C634.65 237.56 653.59 223.44 671.89 223.44C679.27 223.44 685.69 225.04 691.47 227.93ZM843.96 248.16L843.96 226.65L870.28 226.65L870.28 387.16L843.96 387.16L843.96 359.87C832.72 376.89 813.14 391.97 788.74 391.97C747.33 391.97 713.94 358.27 713.94 309.47C713.94 256.5 747.33 223.44 791.31 223.44C809.61 223.44 830.15 232.75 843.96 248.16ZM741.23 309.47C741.23 340.61 761.77 366.29 792.91 366.29C822.13 366.29 844.28 340.93 843.96 306.58L843.63 275.76C830.15 259.07 815.71 249.12 796.12 249.12C761.77 249.12 741.23 278.33 741.23 309.47ZM971.4 387.16L899.17 226.65L930.63 226.65L979.11 344.78L1031.75 226.65L1063.22 226.65L987.77 387.16L971.4 387.16ZM1207.68 248.16L1207.68 226.65L1234 226.65L1234 387.16L1207.68 387.16L1207.68 359.87C1196.44 376.89 1176.86 391.97 1152.46 391.97C1111.05 391.97 1077.66 358.27 1077.66 309.47C1077.66 256.5 1111.05 223.44 1155.03 223.44C1173.33 223.44 1193.87 232.75 1207.68 248.16ZM1104.95 309.47C1104.95 340.61 1125.49 366.29 1156.63 366.29C1185.85 366.29 1208 340.93 1207.68 306.58L1207.35 275.76C1193.87 259.07 1179.43 249.12 1159.84 249.12C1125.49 249.12 1104.95 278.33 1104.95 309.47Z" />
	<path id="n " class="shp0" d="M1425 255.96L1425 362.51C1425 369.81 1420.74 376.99 1412.21 384.04C1403.68 390.85 1393.25 396.39 1380.93 400.67L1368.14 405.58L1372.4 397.27C1374.3 393.24 1375.48 389.84 1375.96 387.07C1378.8 377.5 1380.22 369.31 1380.22 362.51L1380.22 273.72C1380.22 269.44 1377.61 265.91 1372.4 263.14C1367.19 260.37 1360.56 258.98 1352.5 258.98C1344.92 258.98 1338.28 260.5 1332.6 263.52C1327.39 266.29 1324.78 269.69 1324.78 273.72L1324.78 362.51C1324.78 372.33 1326.44 381.9 1329.75 391.22C1330.23 392.73 1331.18 394.75 1332.6 397.27L1336.86 405.58L1324.07 400.67C1316.49 396.89 1309.14 393.11 1302.03 389.33C1287.34 380.01 1280 371.07 1280 362.51L1280 255.96C1280 247.4 1285.69 238.58 1297.06 229.51C1300.85 226.49 1307.01 222.71 1315.54 218.18L1331.18 211L1324.78 221.2C1321.94 224.73 1320.51 229.39 1320.51 235.18C1320.51 237.95 1320.75 240.22 1321.23 241.98C1322.17 243.49 1323.83 245.26 1326.2 247.27C1331.89 251.05 1340.65 252.94 1352.5 252.94C1364.82 252.94 1373.11 251.3 1377.38 248.03C1382.12 244.5 1384.49 240.22 1384.49 235.18C1384.49 231.4 1384.01 228.51 1383.06 226.49C1382.59 224.22 1381.88 222.46 1380.93 221.2L1374.53 211L1389.46 218.18C1396.09 221.71 1402.02 225.48 1407.23 229.51C1419.08 238.83 1425 247.65 1425 255.96Z" />
</svg>