<svg xmlns="http://www.w3.org/2000/svg" viewBox="0 0 1425 435" width="1425" height="435">
	<path id="A " fill-rule="evenodd" class="shp1" d="M254 79.45L254 359.52C254 372.32 246.53 384.9 231.59 397.26C216.65 409.18 198.39 418.89 176.8 426.39L154.39 435L161.86 420.43C165.18 413.37 167.26 407.41 168.09 402.56C173.07 385.78 175.56 371.44 175.56 359.52L175.56 203.93C175.56 196.42 170.99 190.24 161.86 185.39C152.73 180.53 141.11 178.11 127 178.11C113.72 178.11 102.31 180.75 92.76 186.05C83.21 190.91 78.44 196.86 78.44 203.93L78.44 359.52C78.44 376.74 81.35 393.51 87.16 409.84C87.99 412.49 89.65 416.02 92.14 420.43L99.61 435L77.2 426.39C63.92 419.77 51.05 413.15 38.6 406.53C12.87 390.2 0 374.53 0 359.52L0 79.45C0 64.44 9.96 49 29.88 33.11C36.52 27.81 47.31 21.19 62.25 13.24L89.65 0L78.44 18.54C73.46 24.72 70.97 32.88 70.97 43.04C70.97 47.89 71.59 51.86 72.84 54.95C74.08 57.6 76.78 60.69 80.93 64.22C90.89 70.84 106.25 74.16 127 74.16C148.58 74.16 163.32 71.29 171.2 65.55C179.09 59.37 183.03 51.86 183.03 43.04C183.03 36.42 182.41 31.34 181.16 27.81C179.92 23.84 178.46 20.75 176.8 18.54L165.6 0L191.75 13.24C203.37 19.42 213.74 26.04 222.87 33.11C243.62 49.44 254 64.89 254 79.45ZM127 84.75C113.72 84.75 102.31 87.4 92.76 92.69C83.21 97.55 78.44 103.51 78.44 110.57L78.44 141.69C78.44 149.19 83.01 155.37 92.14 160.23C101.27 165.08 112.89 167.51 127 167.51C141.11 167.51 152.73 165.08 161.86 160.23C170.99 155.37 175.56 149.19 175.56 141.69L175.56 110.57C175.56 103.07 170.99 96.89 161.86 92.03C152.73 87.18 141.11 84.75 127 84.75Z" />

		<path id="hiravan  " fill-rule="evenodd" class="shp0" d="M446.84 290.86L446.84 385L420.55 385L420.23 293.33C420.23 266.78 408.37 252.27 383.04 252.27C366.05 252.27 348.1 266.47 335.28 282.52L335.28 385L308.99 385L308.99 162.76L335.28 162.76L335.28 255.05C345.22 243.01 365.73 227.58 387.53 227.58C420.23 227.58 446.84 248.26 446.84 290.86ZM500.37 177.58C500.37 166.47 509.67 156.59 522.17 156.59C534.35 156.59 543.97 166.47 543.97 177.58C543.97 188.38 534.35 198.57 522.17 198.57C509.67 198.57 500.37 188.38 500.37 177.58ZM538.52 385L512.23 385L512.23 254.44L486.91 254.44L486.91 230.67L538.52 230.67L538.52 385ZM690.47 231.9L690.47 262.15C683.74 257.21 675.4 254.13 667.07 254.13C645.27 254.13 633.41 271.1 621.55 291.78L621.55 385L595.26 385L595.26 230.67L621.55 230.67L621.55 261.53C633.73 241.16 652.64 227.58 670.92 227.58C678.29 227.58 684.7 229.12 690.47 231.9ZM842.74 251.35L842.74 230.67L869.03 230.67L869.03 385L842.74 385L842.74 358.76C831.52 375.12 811.97 389.63 787.6 389.63C746.25 389.63 712.91 357.22 712.91 310.3C712.91 259.37 746.25 227.58 790.17 227.58C808.44 227.58 828.96 236.53 842.74 251.35ZM740.16 310.3C740.16 340.24 760.67 364.94 791.77 364.94C820.94 364.94 843.06 340.55 842.74 307.53L842.42 277.89C828.96 261.84 814.53 252.27 794.98 252.27C760.67 252.27 740.16 280.36 740.16 310.3ZM970.01 385L897.88 230.67L929.29 230.67L977.7 344.26L1030.27 230.67L1061.69 230.67L986.35 385L970.01 385ZM1205.94 251.35L1205.94 230.67L1232.23 230.67L1232.23 385L1205.94 385L1205.94 358.76C1194.72 375.12 1175.17 389.63 1150.81 389.63C1109.45 389.63 1076.11 357.22 1076.11 310.3C1076.11 259.37 1109.45 227.58 1153.37 227.58C1171.64 227.58 1192.16 236.53 1205.94 251.35ZM1103.36 310.3C1103.36 340.24 1123.88 364.94 1154.97 364.94C1184.15 364.94 1206.26 340.55 1205.94 307.53L1205.62 277.89C1192.16 261.84 1177.73 252.27 1158.18 252.27C1123.88 252.27 1103.36 280.36 1103.36 310.3ZM1424.57 290.86L1424.57 385L1398.29 385L1397.96 293.33C1397.96 266.78 1386.1 252.27 1360.78 252.27C1343.79 252.27 1325.84 266.47 1313.01 282.52L1313.01 385L1286.73 385L1286.73 230.67L1313.01 230.67L1313.01 255.05C1322.95 243.01 1343.47 227.58 1365.27 227.58C1397.96 227.58 1424.57 248.26 1424.57 290.86Z" />
</svg>