<svg xmlns="http://www.w3.org/2000/svg" viewBox="0 0 256 256" width="256" height="256">
	<style>
		tspan { white-space:pre }
	</style>
	<path id="A " fill="currentColor" d="M206.45 47.15L206.45 211.43Q206.45 222.69 192.47 233.56Q178.49 244.05 158.29 250.65L144.31 255.7L148.97 247.16Q152.08 240.94 152.86 236.67Q157.52 221.91 157.52 211.43L157.52 120.16Q157.52 113.56 148.97 109.29Q140.43 105.02 127.23 105.02Q114.8 105.02 105.87 109.68Q96.93 113.95 96.93 120.16L96.93 211.43Q96.93 226.57 102.37 240.94Q103.15 243.27 105.48 247.16L110.14 255.7L96.16 250.65Q83.73 244.83 72.08 239Q48 224.63 48 211.43L48 47.15Q48 33.95 66.64 19.97Q72.85 15.31 86.84 8.32L103.92 0.55L96.93 11.42Q92.27 16.86 92.27 25.79Q92.27 30.06 93.44 32.78Q94.6 35.11 98.49 38.22Q107.81 44.04 127.23 44.04Q147.42 44.04 154.8 39Q162.18 33.56 162.18 25.79Q162.18 19.97 161.01 16.86Q159.85 13.36 158.29 11.42L151.3 0.55L167.61 8.32Q178.49 13.75 187.03 19.97Q206.45 34.34 206.45 47.15ZM127.23 50.26Q114.8 50.26 105.87 54.92Q96.93 59.19 96.93 65.4L96.93 83.66Q96.93 90.26 105.48 94.53Q114.02 98.8 127.23 98.8Q140.43 98.8 148.97 94.53Q157.52 90.26 157.52 83.66L157.52 65.4Q157.52 58.8 148.97 54.53Q140.43 50.26 127.23 50.26Z" />
</svg>