<svg xmlns="http://www.w3.org/2000/svg" viewBox="0 0 1491 520" width="1491" height="520">
	<style>
		tspan { white-space:pre }
		.shp0 { fill: currentcolor } 
	</style>
	<path id="A " fill-rule="evenodd" class="shp0" d="M336 95L336 429.85C336 445.16 326.12 460.2 306.35 474.98C286.59 489.23 262.43 500.84 233.88 509.81L204.24 520.1L214.12 502.68C218.51 494.24 221.25 487.12 222.35 481.31C228.94 461.26 232.24 444.1 232.24 429.85L232.24 243.82C232.24 234.85 226.2 227.46 214.12 221.66C202.04 215.85 186.67 212.95 168 212.95C150.43 212.95 135.33 216.11 122.71 222.45C110.08 228.25 103.76 235.38 103.76 243.82L103.76 429.85C103.76 450.44 107.61 470.49 115.29 490.02C116.39 493.18 118.59 497.41 121.88 502.68L131.76 520.1L102.12 509.81C84.55 501.89 67.53 493.98 51.06 486.06C17.02 466.53 0 447.8 0 429.85L0 95C0 77.05 13.18 58.58 39.53 39.58C48.31 33.25 62.59 25.33 82.35 15.83L118.59 0L103.76 22.17C97.18 29.55 93.88 39.32 93.88 51.46C93.88 57.26 94.71 62.01 96.35 65.71C98 68.87 101.57 72.57 107.06 76.79C120.24 84.7 140.55 88.66 168 88.66C196.55 88.66 216.04 85.23 226.47 78.37C236.9 70.98 242.12 62.01 242.12 51.46C242.12 43.54 241.29 37.47 239.65 33.25C238 28.5 236.08 24.8 233.88 22.17L219.06 0L253.65 15.83C269.02 23.22 282.75 31.14 294.82 39.58C322.27 59.11 336 77.58 336 95ZM168 101.33C150.43 101.33 135.33 104.49 122.71 110.83C110.08 116.63 103.76 123.76 103.76 132.2L103.76 169.41C103.76 178.38 109.8 185.77 121.88 191.57C133.96 197.38 149.33 200.28 168 200.28C186.67 200.28 202.04 197.38 214.12 191.57C226.2 185.77 232.24 178.38 232.24 169.41L232.24 132.2C232.24 123.23 226.2 115.84 214.12 110.04C202.04 104.23 186.67 101.33 168 101.33Z" />
	<path id="hirava " fill-rule="evenodd" class="shp0" d="M522.49 347.25L522.49 445.16L496.17 445.16L495.85 349.82C495.85 322.21 483.97 307.12 458.61 307.12C441.59 307.12 423.62 321.89 410.78 338.58L410.78 445.16L384.45 445.16L384.45 214.02L410.78 214.02L410.78 310.01C420.73 297.49 441.27 281.44 463.1 281.44C495.85 281.44 522.49 302.95 522.49 347.25ZM576.1 229.43C576.1 217.87 585.41 207.6 597.93 207.6C610.13 207.6 619.76 217.87 619.76 229.43C619.76 240.67 610.13 251.26 597.93 251.26C585.41 251.26 576.1 240.67 576.1 229.43ZM614.3 445.16L587.98 445.16L587.98 309.37L562.62 309.37L562.62 284.65L614.3 284.65L614.3 445.16ZM766.47 285.93L766.47 317.39C759.73 312.26 751.38 309.05 743.03 309.05C721.21 309.05 709.33 326.7 697.45 348.21L697.45 445.16L671.13 445.16L671.13 284.65L697.45 284.65L697.45 316.75C709.65 295.56 728.59 281.44 746.89 281.44C754.27 281.44 760.69 283.04 766.47 285.93ZM918.96 306.16L918.96 284.65L945.28 284.65L945.28 445.16L918.96 445.16L918.96 417.87C907.72 434.89 888.14 449.97 863.74 449.97C822.33 449.97 788.94 416.27 788.94 367.47C788.94 314.5 822.33 281.44 866.31 281.44C884.61 281.44 905.15 290.75 918.96 306.16ZM816.23 367.47C816.23 398.61 836.77 424.29 867.91 424.29C897.13 424.29 919.28 398.93 918.96 364.58L918.63 333.76C905.15 317.07 890.71 307.12 871.12 307.12C836.77 307.12 816.23 336.33 816.23 367.47ZM1046.4 445.16L974.17 284.65L1005.63 284.65L1054.11 402.78L1106.75 284.65L1138.22 284.65L1062.77 445.16L1046.4 445.16ZM1282.68 306.16L1282.68 284.65L1309 284.65L1309 445.16L1282.68 445.16L1282.68 417.87C1271.44 434.89 1251.86 449.97 1227.46 449.97C1186.05 449.97 1152.66 416.27 1152.66 367.47C1152.66 314.5 1186.05 281.44 1230.03 281.44C1248.33 281.44 1268.87 290.75 1282.68 306.16ZM1179.95 367.47C1179.95 398.61 1200.49 424.29 1231.63 424.29C1260.85 424.29 1283 398.93 1282.68 364.58L1282.35 333.76C1268.87 317.07 1254.43 307.12 1234.84 307.12C1200.49 307.12 1179.95 336.33 1179.95 367.47Z" />
	<path id="n " class="shp0" d="M1491 313.96L1491 420.51C1491 427.81 1486.74 434.99 1478.21 442.04C1469.68 448.85 1459.25 454.39 1446.93 458.67L1434.14 463.58L1438.4 455.27C1440.3 451.24 1441.48 447.84 1441.96 445.07C1444.8 435.5 1446.22 427.31 1446.22 420.51L1446.22 331.72C1446.22 327.44 1443.61 323.91 1438.4 321.14C1433.19 318.37 1426.56 316.98 1418.5 316.98C1410.92 316.98 1404.28 318.5 1398.6 321.52C1393.39 324.29 1390.78 327.69 1390.78 331.72L1390.78 420.51C1390.78 430.33 1392.44 439.9 1395.75 449.22C1396.23 450.73 1397.18 452.75 1398.6 455.27L1402.86 463.58L1390.07 458.67C1382.49 454.89 1375.14 451.11 1368.03 447.33C1353.34 438.01 1346 429.07 1346 420.51L1346 313.96C1346 305.4 1351.69 296.58 1363.06 287.51C1366.85 284.49 1373.01 280.71 1381.54 276.18L1397.18 269L1390.78 279.2C1387.94 282.73 1386.51 287.39 1386.51 293.18C1386.51 295.95 1386.75 298.22 1387.23 299.98C1388.17 301.49 1389.83 303.26 1392.2 305.27C1397.89 309.05 1406.65 310.94 1418.5 310.94C1430.82 310.94 1439.11 309.3 1443.38 306.03C1448.12 302.5 1450.49 298.22 1450.49 293.18C1450.49 289.4 1450.01 286.51 1449.06 284.49C1448.59 282.22 1447.88 280.46 1446.93 279.2L1440.53 269L1455.46 276.18C1462.09 279.71 1468.02 283.48 1473.23 287.51C1485.08 296.83 1491 305.65 1491 313.96Z" />
</svg>